<svg width="28" height="24" viewBox="0 0 28 24" fill="none" xmlns="http://www.w3.org/2000/svg">
<path d="M12.4638 5.28783C12.4638 6.13583 12.2638 6.93583 11.8638 7.68783C11.4638 8.43983 10.8238 9.05583 9.9438 9.53583C9.0638 9.99983 7.9358 10.2318 6.5598 10.2318H3.5358V16.9998H0.799805V0.319824H6.5598C7.8398 0.319824 8.9198 0.543824 9.7998 0.991824C10.6958 1.42383 11.3598 2.01583 11.7918 2.76783C12.2398 3.51982 12.4638 4.35983 12.4638 5.28783ZM6.5598 7.99983C7.5998 7.99983 8.3758 7.76783 8.8878 7.30382C9.3998 6.82382 9.6558 6.15182 9.6558 5.28783C9.6558 3.46383 8.6238 2.55183 6.5598 2.55183H3.5358V7.99983H6.5598ZM17.0892 5.71982C17.5532 5.11182 18.1852 4.59983 18.9852 4.18383C19.7852 3.76783 20.6892 3.55983 21.6972 3.55983C22.8492 3.55983 23.8972 3.84782 24.8412 4.42382C25.8012 4.98382 26.5532 5.77583 27.0972 6.79983C27.6412 7.82383 27.9132 8.99983 27.9132 10.3278C27.9132 11.6558 27.6412 12.8478 27.0972 13.9038C26.5532 14.9438 25.8012 15.7598 24.8412 16.3518C23.8972 16.9278 22.8492 17.2158 21.6972 17.2158C20.6892 17.2158 19.7932 17.0158 19.0092 16.6158C18.2252 16.1998 17.5852 15.6878 17.0892 15.0798V23.2878H14.3532V3.77583H17.0892V5.71982ZM25.1292 10.3278C25.1292 9.41583 24.9372 8.63182 24.5532 7.97582C24.1852 7.30382 23.6892 6.79983 23.0652 6.46383C22.4572 6.11182 21.8012 5.93582 21.0972 5.93582C20.4092 5.93582 19.7532 6.11182 19.1292 6.46383C18.5212 6.81583 18.0252 7.32783 17.6412 7.99983C17.2732 8.67183 17.0892 9.46383 17.0892 10.3758C17.0892 11.2878 17.2732 12.0878 17.6412 12.7758C18.0252 13.4478 18.5212 13.9598 19.1292 14.3118C19.7532 14.6638 20.4092 14.8398 21.0972 14.8398C21.8012 14.8398 22.4572 14.6638 23.0652 14.3118C23.6892 13.9438 24.1852 13.4158 24.5532 12.7278C24.9372 12.0398 25.1292 11.2398 25.1292 10.3278Z" fill="black"/>
</svg>
